<svg width="138" height="18" viewBox="0 0 138 18" fill="none" xmlns="http://www.w3.org/2000/svg">
<path d="M4.77098 7.81537H12.421V11.43H4.77098V7.81537ZM5.10256 17.1H0.413086V0.5625H13.4157V4.17712H5.10256V17.1Z" fill="#2F302C"/>
<path d="M24.68 17.4307C22.2326 17.4307 20.3221 16.7614 18.9484 15.4226C17.5747 14.0839 16.8879 12.186 16.8879 9.72899V0.5625H21.5773V9.58724C21.5773 11.0047 21.8536 12.0206 22.4063 12.6349C22.9747 13.2491 23.7484 13.5562 24.7273 13.5562C25.7063 13.5562 26.4721 13.2491 27.0247 12.6349C27.5773 12.0206 27.8536 11.0047 27.8536 9.58724V0.5625H32.4721V9.72899C32.4721 12.186 31.7852 14.0839 30.4115 15.4226C29.0379 16.7614 27.1273 17.4307 24.68 17.4307Z" fill="#2F302C"/>
<path d="M37.07 17.1V0.5625H44.6489C46.1647 0.5625 47.4673 0.806625 48.5568 1.29487C49.6621 1.78312 50.5147 2.49187 51.1147 3.42112C51.7147 4.33462 52.0147 5.42137 52.0147 6.68137C52.0147 7.92562 51.7147 9.00449 51.1147 9.91799C50.5147 10.8157 49.6621 11.5087 48.5568 11.997C47.4673 12.4695 46.1647 12.7057 44.6489 12.7057H39.6752L41.7594 10.7449V17.1H37.07ZM47.3252 17.1L43.2042 11.0756H48.2015L52.3463 17.1H47.3252ZM41.7594 11.241L39.6752 9.09111H44.3647C45.3436 9.09111 46.07 8.87849 46.5436 8.45324C47.0331 8.02799 47.2779 7.43737 47.2779 6.68137C47.2779 5.90962 47.0331 5.31112 46.5436 4.88587C46.07 4.46062 45.3436 4.248 44.3647 4.248H39.6752L41.7594 2.09812V11.241Z" fill="#2F302C"/>
<path d="M56.0229 17.1V0.5625H59.8834L69.0255 11.5717H67.2018V0.5625H71.7966V17.1H67.936L58.7939 6.09074H60.6176V17.1H56.0229Z" fill="#2F302C"/>
<path d="M76.5254 17.1V0.5625H81.2149V17.1H76.5254Z" fill="#2F302C"/>
<path d="M89.5012 17.1V4.27162H84.4091V0.5625H99.2591V4.27162H94.1907V17.1H89.5012Z" fill="#2F302C"/>
<path d="M109.823 17.4307C107.375 17.4307 105.465 16.7614 104.091 15.4226C102.718 14.0839 102.031 12.186 102.031 9.72899V0.5625H106.72V9.58724C106.72 11.0047 106.997 12.0206 107.549 12.6349C108.118 13.2491 108.891 13.5562 109.87 13.5562C110.849 13.5562 111.615 13.2491 112.168 12.6349C112.72 12.0206 112.997 11.0047 112.997 9.58724V0.5625H117.615V9.72899C117.615 12.186 116.928 14.0839 115.554 15.4226C114.181 16.7614 112.27 17.4307 109.823 17.4307Z" fill="#2F302C"/>
<path d="M122.213 17.1V0.5625H129.792C131.308 0.5625 132.61 0.806625 133.7 1.29487C134.805 1.78312 135.658 2.49187 136.258 3.42112C136.858 4.33462 137.158 5.42137 137.158 6.68137C137.158 7.92562 136.858 9.00449 136.258 9.91799C135.658 10.8157 134.805 11.5087 133.7 11.997C132.61 12.4695 131.308 12.7057 129.792 12.7057H124.818L126.902 10.7449V17.1H122.213ZM132.468 17.1L128.347 11.0756H133.344L137.489 17.1H132.468ZM126.902 11.241L124.818 9.09111H129.508C130.487 9.09111 131.213 8.87849 131.687 8.45324C132.176 8.02799 132.421 7.43737 132.421 6.68137C132.421 5.90962 132.176 5.31112 131.687 4.88587C131.213 4.46062 130.487 4.248 129.508 4.248H124.818L126.902 2.09812V11.241Z" fill="#2F302C"/>
</svg>
