<svg width="56" height="56" viewBox="0 0 56 56" fill="none" xmlns="http://www.w3.org/2000/svg">
<rect width="56" height="56" rx="28" fill="#F6F6F6"/>
<path d="M21.121 33.804C23.2194 32.6179 25.5896 31.9963 28 32C30.5 32 32.847 32.655 34.879 33.804M31 26C31 26.7956 30.6839 27.5587 30.1213 28.1213C29.5587 28.6839 28.7956 29 28 29C27.2044 29 26.4413 28.6839 25.8787 28.1213C25.3161 27.5587 25 26.7956 25 26C25 25.2044 25.3161 24.4413 25.8787 23.8787C26.4413 23.3161 27.2044 23 28 23C28.7956 23 29.5587 23.3161 30.1213 23.8787C30.6839 24.4413 31 25.2044 31 26ZM37 28C37 29.1819 36.7672 30.3522 36.3149 31.4442C35.8626 32.5361 35.1997 33.5282 34.364 34.364C33.5282 35.1997 32.5361 35.8626 31.4442 36.3149C30.3522 36.7672 29.1819 37 28 37C26.8181 37 25.6478 36.7672 24.5558 36.3149C23.4639 35.8626 22.4718 35.1997 21.636 34.364C20.8003 33.5282 20.1374 32.5361 19.6851 31.4442C19.2328 30.3522 19 29.1819 19 28C19 25.6131 19.9482 23.3239 21.636 21.636C23.3239 19.9482 25.6131 19 28 19C30.3869 19 32.6761 19.9482 34.364 21.636C36.0518 23.3239 37 25.6131 37 28Z" stroke="#2F302C" stroke-width="1.5" stroke-linecap="round" stroke-linejoin="round"/>
</svg>
