<svg width="56" height="56" viewBox="0 0 56 56" fill="none" xmlns="http://www.w3.org/2000/svg">
<rect width="56" height="56" rx="28" fill="#F6F6F6"/>
<path d="M30.1213 30.1213C30.6839 29.5587 31 28.7956 31 28C31 27.2044 30.6839 26.4413 30.1213 25.8787C29.5587 25.3161 28.7956 25 28 25C27.2044 25 26.4413 25.3161 25.8787 25.8787C25.3161 26.4413 25 27.2044 25 28C25 28.7956 25.3161 29.5587 25.8787 30.1213C26.4413 30.6839 27.2044 31 28 31C28.7956 31 29.5587 30.6839 30.1213 30.1213Z" stroke="#2F302C" stroke-width="1.5" stroke-linecap="round" stroke-linejoin="round"/>
<path d="M18.458 28C19.732 23.943 23.523 21 28 21C32.478 21 36.268 23.943 37.542 28C36.268 32.057 32.478 35 28 35C23.523 35 19.732 32.057 18.458 28Z" stroke="#2F302C" stroke-width="1.5" stroke-linecap="round" stroke-linejoin="round"/>
</svg>
