<svg width="56" height="56" viewBox="0 0 56 56" fill="none" xmlns="http://www.w3.org/2000/svg">
<rect width="56" height="56" rx="28" fill="#F6F6F6"/>
<path d="M19 26H37M23 31H24M28 31H29M22 35H34C34.7956 35 35.5587 34.6839 36.1213 34.1213C36.6839 33.5587 37 32.7956 37 32V24C37 23.2044 36.6839 22.4413 36.1213 21.8787C35.5587 21.3161 34.7956 21 34 21H22C21.2044 21 20.4413 21.3161 19.8787 21.8787C19.3161 22.4413 19 23.2044 19 24V32C19 32.7956 19.3161 33.5587 19.8787 34.1213C20.4413 34.6839 21.2044 35 22 35Z" stroke="#2F302C" stroke-width="1.5" stroke-linecap="round" stroke-linejoin="round"/>
</svg>
