<svg width="128" height="6" viewBox="0 0 128 6" fill="none" xmlns="http://www.w3.org/2000/svg">
<path d="M2.37906 5.71624V3.53487L2.60801 4.16487L0.208008 0.20375H1.30538L3.23169 3.39312H2.6159L4.55801 0.20375H5.56853L3.16853 4.16487L3.40538 3.53487V5.71624H2.37906Z" fill="#2F302C"/>
<path d="M10.0122 5.79499C9.58058 5.79499 9.18321 5.72412 8.82006 5.58237C8.4569 5.44062 8.14111 5.24374 7.87269 4.99174C7.60427 4.73449 7.39637 4.43525 7.249 4.094C7.10163 3.7475 7.02795 3.3695 7.02795 2.96C7.02795 2.5505 7.10163 2.17512 7.249 1.83387C7.39637 1.48737 7.60427 1.18812 7.87269 0.936124C8.14111 0.678875 8.4569 0.479375 8.82006 0.337625C9.18321 0.195875 9.57795 0.125 10.0043 0.125C10.4358 0.125 10.8306 0.195875 11.1885 0.337625C11.5516 0.479375 11.8674 0.678875 12.1358 0.936124C12.4043 1.18812 12.6122 1.48737 12.7595 1.83387C12.9069 2.17512 12.9806 2.5505 12.9806 2.96C12.9806 3.3695 12.9069 3.7475 12.7595 4.094C12.6122 4.4405 12.4043 4.73974 12.1358 4.99174C11.8674 5.24374 11.5516 5.44062 11.1885 5.58237C10.8306 5.72412 10.4385 5.79499 10.0122 5.79499ZM10.0043 4.89724C10.2832 4.89724 10.5411 4.85 10.778 4.7555C11.0148 4.661 11.2201 4.52712 11.3937 4.35387C11.5674 4.17537 11.7016 3.97062 11.7964 3.73962C11.8964 3.50337 11.9464 3.2435 11.9464 2.96C11.9464 2.6765 11.8964 2.41925 11.7964 2.18825C11.7016 1.952 11.5674 1.74725 11.3937 1.574C11.2201 1.3955 11.0148 1.259 10.778 1.1645C10.5411 1.07 10.2832 1.02275 10.0043 1.02275C9.72532 1.02275 9.46742 1.07 9.23058 1.1645C8.999 1.259 8.79374 1.3955 8.61479 1.574C8.44111 1.74725 8.30427 1.952 8.20427 2.18825C8.10953 2.41925 8.06216 2.6765 8.06216 2.96C8.06216 3.23825 8.10953 3.4955 8.20427 3.73175C8.30427 3.968 8.44111 4.17537 8.61479 4.35387C8.78848 4.52712 8.99374 4.661 9.23058 4.7555C9.46742 4.85 9.72532 4.89724 10.0043 4.89724Z" fill="#2F302C"/>
<path d="M17.8658 5.79499C17.1079 5.79499 16.5132 5.58237 16.0816 5.15712C15.6553 4.73187 15.4421 4.11762 15.4421 3.31437V0.20375H16.4685V3.275C16.4685 3.842 16.5895 4.25412 16.8316 4.51137C17.079 4.76862 17.4263 4.89724 17.8737 4.89724C18.3211 4.89724 18.6658 4.76862 18.9079 4.51137C19.15 4.25412 19.2711 3.842 19.2711 3.275V0.20375H20.2816V3.31437C20.2816 4.11762 20.0658 4.73187 19.6342 5.15712C19.2079 5.58237 18.6185 5.79499 17.8658 5.79499Z" fill="#2F302C"/>
<path d="M23.14 5.71624V0.20375H25.4137C25.9032 0.20375 26.3216 0.2825 26.6689 0.44C27.0216 0.5975 27.2926 0.823249 27.4821 1.11725C27.6716 1.41125 27.7663 1.76037 27.7663 2.16462C27.7663 2.56887 27.6716 2.918 27.4821 3.212C27.2926 3.50075 27.0216 3.72387 26.6689 3.88137C26.3216 4.03362 25.9032 4.10975 25.4137 4.10975H23.7084L24.1663 3.64512V5.71624H23.14ZM26.7558 5.71624L25.3584 3.716H26.4558L27.8611 5.71624H26.7558ZM24.1663 3.75537L23.7084 3.26712H25.3663C25.8189 3.26712 26.1584 3.17 26.3847 2.97575C26.6163 2.7815 26.7321 2.51112 26.7321 2.16462C26.7321 1.81287 26.6163 1.5425 26.3847 1.3535C26.1584 1.1645 25.8189 1.07 25.3663 1.07H23.7084L24.1663 0.565999V3.75537Z" fill="#2F302C"/>
<path d="M34.878 2.7395H37.6333V3.60575H34.878V2.7395ZM34.9648 5.71624H33.9385V0.20375H37.9727V1.06212H34.9648V5.71624Z" fill="#2F302C"/>
<path d="M42.7626 5.79499C42.0047 5.79499 41.41 5.58237 40.9784 5.15712C40.5521 4.73187 40.3389 4.11762 40.3389 3.31437V0.20375H41.3652V3.275C41.3652 3.842 41.4863 4.25412 41.7284 4.51137C41.9758 4.76862 42.3231 4.89724 42.7705 4.89724C43.2179 4.89724 43.5626 4.76862 43.8047 4.51137C44.0468 4.25412 44.1679 3.842 44.1679 3.275V0.20375H45.1784V3.31437C45.1784 4.11762 44.9626 4.73187 44.531 5.15712C44.1047 5.58237 43.5152 5.79499 42.7626 5.79499Z" fill="#2F302C"/>
<path d="M49.0576 5.71624V1.07H47.226V0.20375H51.9155V1.07H50.0839V5.71624H49.0576Z" fill="#2F302C"/>
<path d="M56.3829 5.79499C55.625 5.79499 55.0303 5.58237 54.5987 5.15712C54.1724 4.73187 53.9592 4.11762 53.9592 3.31437V0.20375H54.9855V3.275C54.9855 3.842 55.1066 4.25412 55.3487 4.51137C55.596 4.76862 55.9434 4.89724 56.3908 4.89724C56.8381 4.89724 57.1829 4.76862 57.425 4.51137C57.6671 4.25412 57.7881 3.842 57.7881 3.275V0.20375H58.7987V3.31437C58.7987 4.11762 58.5829 4.73187 58.1513 5.15712C57.725 5.58237 57.1355 5.79499 56.3829 5.79499Z" fill="#2F302C"/>
<path d="M61.6571 5.71624V0.20375H63.9307C64.4202 0.20375 64.8386 0.2825 65.186 0.44C65.5386 0.5975 65.8097 0.823249 65.9992 1.11725C66.1886 1.41125 66.2834 1.76037 66.2834 2.16462C66.2834 2.56887 66.1886 2.918 65.9992 3.212C65.8097 3.50075 65.5386 3.72387 65.186 3.88137C64.8386 4.03362 64.4202 4.10975 63.9307 4.10975H62.2255L62.6834 3.64512V5.71624H61.6571ZM65.2729 5.71624L63.8755 3.716H64.9729L66.3781 5.71624H65.2729ZM62.6834 3.75537L62.2255 3.26712H63.8834C64.336 3.26712 64.6755 3.17 64.9018 2.97575C65.1334 2.7815 65.2492 2.51112 65.2492 2.16462C65.2492 1.81287 65.1334 1.5425 64.9018 1.3535C64.6755 1.1645 64.336 1.07 63.8834 1.07H62.2255L62.6834 0.565999V3.75537Z" fill="#2F302C"/>
<path d="M69.8 2.49537H72.5474V3.338H69.8V2.49537ZM69.879 4.85787H72.9974V5.71624H68.8527V0.20375H72.8869V1.06212H69.879V4.85787Z" fill="#2F302C"/>
<path d="M79.1655 5.71624V0.20375H80.1918V5.71624H79.1655Z" fill="#2F302C"/>
<path d="M83.1076 5.71624V0.20375H83.9524L87.4182 4.44837H86.9997V0.20375H88.0181V5.71624H87.1734L83.7076 1.47162H84.126V5.71624H83.1076Z" fill="#2F302C"/>
<path d="M92.0411 5.71624V1.07H90.2095V0.20375H94.899V1.07H93.0674V5.71624H92.0411Z" fill="#2F302C"/>
<path d="M98.0376 2.49537H100.785V3.338H98.0376V2.49537ZM98.1166 4.85787H101.235V5.71624H97.0902V0.20375H101.124V1.06212H98.1166V4.85787Z" fill="#2F302C"/>
<path d="M103.8 5.71624V0.20375H106.074C106.563 0.20375 106.982 0.2825 107.329 0.44C107.682 0.5975 107.953 0.823249 108.142 1.11725C108.332 1.41125 108.426 1.76037 108.426 2.16462C108.426 2.56887 108.332 2.918 108.142 3.212C107.953 3.50075 107.682 3.72387 107.329 3.88137C106.982 4.03362 106.563 4.10975 106.074 4.10975H104.369L104.826 3.64512V5.71624H103.8ZM107.416 5.71624L106.019 3.716H107.116L108.521 5.71624H107.416ZM104.826 3.75537L104.369 3.26712H106.026C106.479 3.26712 106.819 3.17 107.045 2.97575C107.276 2.7815 107.392 2.51112 107.392 2.16462C107.392 1.81287 107.276 1.5425 107.045 1.3535C106.819 1.1645 106.479 1.07 106.026 1.07H104.369L104.826 0.565999V3.75537Z" fill="#2F302C"/>
<path d="M110.996 5.71624V0.20375H112.022V5.71624H110.996Z" fill="#2F302C"/>
<path d="M117.527 5.79499C117.096 5.79499 116.698 5.72412 116.335 5.58237C115.972 5.44062 115.656 5.24374 115.388 4.99174C115.119 4.73449 114.912 4.43525 114.764 4.094C114.617 3.7475 114.543 3.3695 114.543 2.96C114.543 2.5505 114.617 2.17512 114.764 1.83387C114.912 1.48737 115.119 1.18812 115.388 0.936124C115.656 0.678875 115.972 0.479375 116.335 0.337625C116.698 0.195875 117.093 0.125 117.519 0.125C117.951 0.125 118.346 0.195875 118.704 0.337625C119.067 0.479375 119.383 0.678875 119.651 0.936124C119.919 1.18812 120.127 1.48737 120.275 1.83387C120.422 2.17512 120.496 2.5505 120.496 2.96C120.496 3.3695 120.422 3.7475 120.275 4.094C120.127 4.4405 119.919 4.73974 119.651 4.99174C119.383 5.24374 119.067 5.44062 118.704 5.58237C118.346 5.72412 117.954 5.79499 117.527 5.79499ZM117.519 4.89724C117.798 4.89724 118.056 4.85 118.293 4.7555C118.53 4.661 118.735 4.52712 118.909 4.35387C119.083 4.17537 119.217 3.97062 119.312 3.73962C119.412 3.50337 119.462 3.2435 119.462 2.96C119.462 2.6765 119.412 2.41925 119.312 2.18825C119.217 1.952 119.083 1.74725 118.909 1.574C118.735 1.3955 118.53 1.259 118.293 1.1645C118.056 1.07 117.798 1.02275 117.519 1.02275C117.241 1.02275 116.983 1.07 116.746 1.1645C116.514 1.259 116.309 1.3955 116.13 1.574C115.956 1.74725 115.819 1.952 115.719 2.18825C115.625 2.41925 115.577 2.6765 115.577 2.96C115.577 3.23825 115.625 3.4955 115.719 3.73175C115.819 3.968 115.956 4.17537 116.13 4.35387C116.304 4.52712 116.509 4.661 116.746 4.7555C116.983 4.85 117.241 4.89724 117.519 4.89724Z" fill="#2F302C"/>
<path d="M123.005 5.71624V0.20375H125.278C125.768 0.20375 126.186 0.2825 126.534 0.44C126.886 0.5975 127.157 0.823249 127.347 1.11725C127.536 1.41125 127.631 1.76037 127.631 2.16462C127.631 2.56887 127.536 2.918 127.347 3.212C127.157 3.50075 126.886 3.72387 126.534 3.88137C126.186 4.03362 125.768 4.10975 125.278 4.10975H123.573L124.031 3.64512V5.71624H123.005ZM126.621 5.71624L125.223 3.716H126.321L127.726 5.71624H126.621ZM124.031 3.75537L123.573 3.26712H125.231C125.684 3.26712 126.023 3.17 126.249 2.97575C126.481 2.7815 126.597 2.51112 126.597 2.16462C126.597 1.81287 126.481 1.5425 126.249 1.3535C126.023 1.1645 125.684 1.07 125.231 1.07H123.573L124.031 0.565999V3.75537Z" fill="#2F302C"/>
</svg>
